<svg width="15.000000" height="15.000000" viewBox="0 0 15 15" fill="none" xmlns="http://www.w3.org/2000/svg" xmlns:xlink="http://www.w3.org/1999/xlink">
	<desc>
			Created with Pixso.
	</desc>
	<defs/>
	<path id="Vector" d="M-0.13 -0.13C0.28 -0.55 0.96 -0.55 1.37 -0.13L7 5.49L12.62 -0.13C13.03 -0.55 13.71 -0.55 14.12 -0.13C14.54 0.28 14.54 0.96 14.12 1.37L8.5 7L14.12 12.62C14.54 13.03 14.54 13.71 14.12 14.12C13.71 14.54 13.03 14.54 12.62 14.12L7 8.5L1.37 14.12C0.96 14.54 0.28 14.54 -0.13 14.12C-0.55 13.71 -0.55 13.03 -0.13 12.62L5.49 7L-0.13 1.37C-0.55 0.96 -0.55 0.28 -0.13 -0.13Z" fill="#222222" fill-opacity="1.000000" fill-rule="nonzero"/>
</svg>
