<?xml version="1.0" encoding="UTF-8"?>
<svg version="1.1" viewBox="0 0 1600 1600" width="1280" height="1280" xmlns="http://www.w3.org/2000/svg">
<path transform="translate(262 -.126)" d="m0 0c1.91-0.00104 3.82-0.00253 5.73-0.0044 5.26-0.0039 10.5-0.00156 15.8 0.00178 5.71 0.00253 11.4-7.22e-4 17.1-0.00324 10-0.00361 20-0.0035 30.1-9.53e-4 10.7 0.00273 21.5 0.00333 32.2 0.00126 0.679-1.29e-4 1.36-2.58e-4 2.06-3.91e-4 2.77-5.33e-4 5.53-0.00108 8.3-0.00165 25.8-0.00529 51.5-0.00565 77.3-0.00285 0.763 8.28e-5 1.53 1.66e-4 2.31 2.51e-4 0.764 8.29e-5 1.53 1.66e-4 2.32 2.51e-4 23.3 0.00252 46.6 0.00317 69.9 0.00198 1.56-7.75e-5 3.12-1.55e-4 4.68-2.31e-4 6.26-3.1e-4 12.5-6.29e-4 18.8-9.6e-4 17.5-9.17e-4 35-0.00149 52.5-0.00179 0.798-1.36e-5 1.6-2.73e-5 2.42-4.14e-5 25.4-4.09e-4 50.8 7.18e-4 76.2 0.00289 0.824 7.02e-5 1.65 1.4e-4 2.5 2.13e-4 13.4 0.00114 26.8 0.00236 40.2 0.00359 53.1 0.00486 106 0.00463 159-2.31e-4 13.4-0.00122 26.8-0.00243 40.1-0.00357 0.824-7.04e-5 1.65-1.41e-4 2.5-2.13e-4 25.4-0.00216 50.8-0.00307 76.2-0.00264 1.2 2.04e-5 1.2 2.04e-5 2.42 4.12e-5 17.5 3.12e-4 35 9.46e-4 52.5 0.00187 6.26 3.29e-4 12.5 6.42e-4 18.8 9.51e-4 1.56 7.74e-5 3.11 1.56e-4 4.67 2.36e-4 23.3 0.00119 46.6 1.77e-4 69.8-0.00235 1.14-1.24e-4 1.14-1.24e-4 2.31-2.51e-4 1.14-1.24e-4 1.14-1.24e-4 2.31-2.51e-4 25.7-0.00276 51.4-0.00174 77.1 0.00353 2.76 5.52e-4 5.52 0.00109 8.28 0.00161 1.02 1.95e-4 1.02 1.95e-4 2.05 3.95e-4 11.4 0.00209 22.7 2.38e-4 34.1-0.00265 9.89-0.00224 19.8-8.54e-4 29.7 0.0035 5.64 0.00238 11.3 0.00318 16.9-4.06e-4 5.13-0.00323 10.3-0.00186 15.4 0.00318 1.84 0.00101 3.69 3.43e-4 5.53-0.00221 8.61-0.0111 17.1 0.0275 25.7 0.915 2.48 0.258 2.48 0.258 5.08 0.183 2.37 0.0317 2.37 0.0317 5.37 1.03 1.54 0.321 3.09 0.619 4.64 0.902 0.906 0.168 1.81 0.336 2.75 0.51 1.89 0.347 3.79 0.694 5.68 1.04 5.07 0.944 9.99 2.05 14.9 3.55 2.68 0.713 5.37 1.42 8.06 2.12 3.03 0.904 5.94 1.97 8.89 3.1 1.91 0.727 3.84 1.42 5.77 2.1 9.83 3.52 19.1 7.78 28.3 12.7 0.816 0.43 1.63 0.86 2.47 1.3 10 5.31 19.6 10.7 28.5 17.7 1.2 0.87 2.41 1.74 3.62 2.6 10.6 7.64 20 16.3 29.4 25.4 0.529 0.514 1.06 1.03 1.6 1.56 11.9 11.5 21.6 24.2 31.2 37.7 1.31 1.84 2.62 3.68 3.94 5.52 9.88 13.9 17.6 30.2 23.3 46.2 0.645 1.77 1.29 3.54 1.94 5.31 0.339 0.941 0.678 1.88 1.03 2.85 0.662 1.81 1.34 3.62 2.04 5.42 4.74 12.4 7.2 24.9 8.92 38 0.739 5.49 1.71 10.7 3.43 16 1.61 6.08 1.8 12.3 1.78 18.5 0.00248 1.17 0.00248 1.17 5e-3 2.36 0.00431 2.61 0.00153 5.21-0.00123 7.82 0.00165 1.9 0.00374 3.79 0.00622 5.69 0.00557 5.23 0.00489 10.5 0.00322 15.7-7.31e-4 5.68 0.00429 11.4 0.00858 17 0.00758 11.3 0.00977 22.5 0.0103 33.8 6.34e-4 9.38 0.0036 18.8 0.00821 28.1 3.3e-4 0.675 6.6e-4 1.35 1e-3 2.05 0.00135 2.75 0.00271 5.5 0.00409 8.25 0.0163 32.6 0.0227 65.1 0.0274 97.7 0.00238 16.2 0.00609 32.4 0.01 48.6 0.0127 52 0.0234 104 0.0268 156 1.62e-4 2.49 3.28e-4 4.97 4.94e-4 7.46 3.34e-4 4.99 6.64e-4 9.97 9.95e-4 15 3.87e-4 5.84 7.77e-4 11.7 0.00117 17.5 1.12e-4 1.67 2.24e-4 3.34 3.34e-4 5.01 0.00355 53.6 0.0186 107 0.0419 161 0.0167 38.5 0.0322 77.1 0.0367 116 1.4e-4 1.19 1.4e-4 1.19 2.83e-4 2.4 0.00202 17.4 0.00318 34.8 0.00353 52.2 1.36e-4 6.23 3.45e-4 12.5 5.93e-4 18.7 6.16e-5 1.55 1.2e-4 3.1 1.75e-4 4.65 9.19e-4 24.7 0.0109 49.4 0.0255 74 0.0146 24.9 0.0196 49.7 0.0116 74.6-0.00112 3.44-0.00213 6.88-0.00307 10.3-1.9e-4 0.674-3.8e-4 1.35-5.76e-4 2.04-0.00289 11.3 0.00606 22.6 0.0182 33.9 0.00976 9.84 0.00857 19.7-0.00144 29.5-0.00539 5.61-0.00612 11.2 0.00651 16.8 0.0114 5.11 0.00873 10.2-0.00467 15.3-0.00241 1.83 7.53e-5 3.65 0.0084 5.48 0.0545 12.8-0.598 25.7-3.38 38.2-0.33 0.33-0.66 0.66-1 1-0.26 1.35-0.467 2.72-0.648 4.09-0.117 0.843-0.233 1.69-0.354 2.56-0.185 1.35-0.185 1.35-0.373 2.73-0.938 6.58-2.02 12.9-3.94 19.3-0.686 2.32-1.2 4.63-1.68 7-0.92 4.29-2.35 8.26-4 12.3-0.33 0.825-0.66 1.65-1 2.5-0.33 0.825-0.66 1.65-1 2.5-0.214 0.594-0.428 1.19-0.648 1.8-1.53 4.24-3.32 8.2-5.39 12.2-0.935 1.93-1.68 3.85-2.4 5.87-3.17 8.68-7.89 16.5-12.8 24.2-1.39 2.26-2.64 4.49-3.77 6.88h-2c-0.237 0.862-0.474 1.72-0.719 2.61-1.43 3.78-3.3 6.39-5.78 9.57-3.36 4.33-3.36 4.33-6.5 8.81h-2c-0.276 0.581-0.552 1.16-0.836 1.76-3.26 6.28-7.78 11-13.2 15.5-2.03 1.81-3.75 3.7-5.5 5.78-3.49 4.11-7.37 7.55-11.5 11-0.584 0.51-1.17 1.02-1.77 1.55-3.99 3.45-3.99 3.45-6.23 3.45-0.33 0.99-0.66 1.98-1 3-1.32 0.702-2.65 1.37-4 2-0.446 0.449-0.892 0.897-1.35 1.36-8.08 8.04-19.5 14.1-29.5 19.5-1.46 0.791-2.9 1.6-4.34 2.42-5.78 3.3-11.7 6.1-17.8 8.76-0.914 0.401-1.83 0.802-2.77 1.21-19.9 8.5-40 14.4-61.4 17.2-3.58 0.16-3.58 0.16-4.8 1.58-2.06 0.289-4.12 0.447-6.19 0.621-2.96 0.33-2.96 0.33-6.34 1.39-7.81 1.74-15.9 1.27-23.9 1.25-1.9 0.00239-3.8 0.00566-5.7 0.00972-5.24 0.00863-10.5 0.00479-15.7-0.00106-5.69-0.00416-11.4 0.00323-17.1 0.00915-9.98 0.00877-20 0.0101-29.9 0.0065-10.7-0.00382-21.4-0.00342-32.1 0.00231-0.677 3.59e-4 -1.35 7.18e-4 -2.05 0.00109-2.76 0.00147-5.51 0.00298-8.27 0.00452-28 0.0156-55.9 0.0183-83.9 0.0158-3.87-3.38e-4 -7.73-6.61e-4 -11.6-9.66e-4 -1.15-9.16e-5 -1.15-9.16e-5 -2.33-1.85e-4 -17-0.00127-34 0.00133-51 0.00471-3.89 7.71e-4 -7.77 0.00152-11.7 0.00227-1.56 3.02e-4 -3.12 6.04e-4 -4.68 9.06e-4 -1.16 2.25e-4 -1.16 2.25e-4 -2.34 4.54e-4 -1.56 3.04e-4 -3.13 6.08e-4 -4.69 9.14e-4 -44.4 0.00867-88.7 0.0133-133 0.00905-0.822-7.81e-5 -1.64-1.56e-4 -2.49-2.37e-4 -9.16-8.73e-4 -18.3-0.0018-27.5-0.00275-0.827-8.55e-5 -1.65-1.71e-4 -2.51-2.59e-4 -6.87-7.11e-4 -6.87-7.11e-4 -10-0.00104-52.9-0.00553-106 2e-3 -159 0.0208-13.3 0.00472-26.7 0.0094-40 0.0138-1.23 4.1e-4 -1.23 4.1e-4 -2.49 8.28e-4 -25.3 0.00837-50.6 0.0131-75.9 0.0139-1.19 3.95e-5 -1.19 3.95e-5 -2.41 7.99e-5 -17.4 5.41e-4 -34.9 1.68e-4 -52.3-0.00104-6.24-4.26e-4 -12.5-7.91e-4 -18.7-0.00113-1.55-8.53e-5 -3.11-1.74e-4 -4.66-2.67e-4 -24.7-0.00145-49.4 0.00567-74.2 0.017-25.6 0.0117-51.2 0.0122-76.8 1.57e-4 -2.75-0.00125-5.51-0.00246-8.26-0.00362-0.676-2.9e-4 -1.35-5.81e-4 -2.05-8.8e-4 -11.3-0.00458-22.6 0.00267-34 0.0131-9.86 0.00824-19.7 0.00555-29.6-0.00598-5.62-0.00626-11.2-0.00785-16.8 0.00386-5.12 0.0106-10.2 0.00711-15.4-0.0071-1.83-0.00271-3.66-5.03e-4 -5.49 0.00751-12.6 0.0513-24.8-0.96-37.1-3.39-0.33-0.33-0.66-0.66-1-1-1.78-0.345-3.56-0.636-5.36-0.902-1.65-0.252-1.65-0.252-3.33-0.51-2.32-0.347-4.64-0.694-6.95-1.04-1.1-0.17-2.21-0.339-3.35-0.514-1.01-0.151-2.02-0.301-3.06-0.457-3.11-0.608-5.97-1.52-8.96-2.58-2.04-0.631-4.08-1.26-6.12-1.88-10.5-3.24-20.8-6.73-30.9-11.1-0.847-0.356-1.69-0.712-2.57-1.08-18.6-8.05-35.7-19.1-51.5-31.6-1.7-1.34-3.41-2.66-5.15-3.94-8.19-6.07-15.4-13.3-22.8-20.3-0.919-0.877-1.84-1.75-2.79-2.66-4.11-4.01-7.78-8.13-11.2-12.7-1.54-2.01-3.1-3.97-4.71-5.92-11.2-13.6-20.3-28-28.3-43.7-0.635-1.23-1.27-2.46-1.91-3.7-5.05-9.86-8.98-19.6-12.2-30.2-0.765-2.53-1.57-5.03-2.43-7.52-3.39-10.2-5.95-20.1-7.55-30.7-0.552-4.06-0.552-4.06-1.95-7.87-0.0706-2.37 0.00262-4.73 0.0625-7.1-0.0111-3.04-0.0111-3.04-0.559-6.57-0.533-4.16-0.644-8.28-0.63-12.5-0.00153-0.784-0.00305-1.57-0.00463-2.38-0.00389-2.62-6.87e-4 -5.25 0.00249-7.87-0.00135-1.91-0.00313-3.82-0.00531-5.73-0.00474-5.26-0.00323-10.5-7.22e-4 -15.8 0.00163-5.72-0.00251-11.4-0.00591-17.2-0.00516-10-0.00657-20.1-0.00554-30.1 0.0011-10.8 9.08e-5 -21.5-0.00357-32.3-2.3e-4 -0.68-4.59e-4 -1.36-6.96e-4 -2.06-9.42e-4 -2.77-0.0019-5.54-0.00287-8.31-0.0101-28.9-0.0132-57.8-0.0138-86.7-6.47e-5 -3.11-1.33e-4 -6.22-2.03e-4 -9.33-1.7e-5 -0.772-3.4e-5 -1.54-5.15e-5 -2.34-4.08e-4 -17.1-0.0026-34.2-0.0051-51.3-0.00103-7.04-0.00202-14.1-0.00302-21.1-1.11e-4 -0.778-2.21e-4 -1.56-3.35e-4 -2.36-0.00632-44.6-0.0104-89.1-0.00999-134 1.58e-5 -1.67 3.15e-5 -3.34 4.72e-5 -5 7.34e-5 -7.53 1.62e-4 -15.1 2.54e-4 -22.6 4.11e-5 -3.36 8.13e-5 -6.72 1.21e-4 -10.1 2.04e-5 -1.68 4.14e-5 -3.36 6.31e-5 -5.04 6.8e-4 -53.2-0.00664-106-0.0205-159-0.0035-13.4-0.00697-26.8-0.0103-40.2-2.03e-4 -0.825-4.06e-4 -1.65-6.15e-4 -2.5-0.00621-25.4-0.00998-50.8-0.0112-76.3-4e-5 -0.798-7.99e-5 -1.6-1.21e-4 -2.42-8.53e-4 -17.5-0.00111-35-8.3e-4 -52.5 9.65e-5 -6.27 1.49e-4 -12.5 1.79e-4 -18.8 7.91e-6 -1.56 1.81e-5 -3.12 3.06e-5 -4.68 1.76e-4 -24.9-0.00552-49.7-0.0142-74.6-0.00865-25-0.0108-50.1-0.00424-75.1 9.12e-4 -3.46 0.00176-6.91 0.00256-10.4 2.4e-4 -1.02 2.4e-4 -1.02 4.85e-4 -2.05 0.0025-11.4-0.00293-22.8-0.0104-34.2-0.00598-9.9-0.00473-19.8 0.00247-29.7 0.0039-5.65 0.0046-11.3-0.00346-16.9-0.00727-5.14-0.00536-10.3 0.00392-15.4 0.00172-1.85 8.56e-5 -3.7-0.0053-5.54-0.0241-8.85 0.0392-17.3 2.26-25.9-0.66-0.33-1.32-0.66-2-1l0.551-2.25c1.54-6.46 2.85-12.9 3.95-19.4 1.07-6.28 2.49-12.3 4.5-18.3 0.504-1.69 1-3.37 1.5-5.06 4.02-13.4 9.24-25.7 15.6-38.1 1.23-2.42 2.42-4.85 3.62-7.28 3.5-7 7.41-13.8 11.3-20.6h2c0.248-0.887 0.495-1.77 0.75-2.69 1.3-3.45 2.86-5.55 5.25-8.31 0.99-1.48 0.99-1.48 2-3h2c0.381-1.09 0.381-1.09 0.77-2.2 3.09-7.04 9.02-12.8 14.5-18.1 2.51-2.51 4.77-5.21 7.05-7.93 1.75-1.88 3.6-3.3 5.68-4.8 1.35-1.31 2.69-2.65 4-4 2.99-3.08 6.13-5.88 9.44-8.62 1.39-1.16 1.39-1.16 2.81-2.35 2.75-2.02 2.75-2.02 5.54-3.11l2.21-0.914c0.33-0.99 0.66-1.98 1-3 1.97-1.45 3.92-2.72 6-4 1.79-1.14 3.58-2.29 5.38-3.44 0.958-0.606 1.92-1.21 2.9-1.84 1.6-1.02 3.2-2.04 4.79-3.08 4.85-3.14 9.91-5.7 15.1-8.22 2.7-1.36 5.25-2.87 7.83-4.43 1.6-0.698 3.19-1.39 4.8-2.05 1.71-0.736 3.4-1.52 5.08-2.33 6.6-3.16 13.1-5.71 20.1-7.75 2.62-0.76 5.18-1.6 7.75-2.5 3.63-1.23 7.26-2.1 11-2.85 2.35-0.512 2.35-0.512 4.99-1.49 3.82-1.22 7.62-1.92 11.6-2.6 4.73-0.439 4.73-0.439 8.69-2.44 2.56-0.0742 5.1 0.00367 7.65 0.0625 2.56-0.0477 4.87-0.241 7.39-0.559 8.16-0.83 16.4-0.641 24.6-0.63zm-39.6 2.13v1h5v-1h-5zm-220 223 1 3zm0 1147 1 3z" fill="#FDFDFD"/>
<path transform="translate(853,421)" d="m0 0c0.787 0.0032 1.57 0.00639 2.38 0.00969 40.5 0.167 81 1.47 121 2.74 2.72 0.0849 5.44 0.169 8.16 0.253 47.9 1.47 95.9 3.07 144 7.14 3.58 0.304 7.17 0.59 10.7 0.875 93.7 7.66 93.7 7.66 130 36 0.798 0.623 0.798 0.623 1.61 1.26 24.9 19.5 41.2 47.7 47.9 78.4 0.15 0.679 0.3 1.36 0.454 2.06 3.69 16.7 6.98 33.4 8.36 50.4 0.319 3.82 0.786 7.48 1.62 11.2 1.68 8.04 2.26 16.2 3 24.4 0.0852 0.928 0.17 1.86 0.258 2.81 1.62 17.9 2.63 35.9 3.49 53.8 0.0606 1.26 0.121 2.52 0.184 3.81 0.351 7.39 0.677 14.8 0.981 22.2 0.0963 2.32 0.196 4.65 0.298 6.97 1.02 23.3 1.05 46.5 1.04 69.8 5.62e-5 2.04 1.17e-4 4.08 1.83e-4 6.13-0.00999 41.7-0.481 83.4-3.9 125-0.342 4.33-0.642 8.66-0.941 13-1.19 17-2.59 34-4.47 51-0.129 1.18-0.129 1.18-0.261 2.38-0.243 2.2-0.493 4.39-0.746 6.58-0.215 1.86-0.215 1.86-0.434 3.77-0.433 2.9-0.433 2.9-1.43 4.9-0.254 1.57-0.463 3.15-0.648 4.73-0.117 0.96-0.233 1.92-0.354 2.91-0.123 1.02-0.246 2.05-0.373 3.11-1.11 8.89-2.54 17.5-4.62 26.2-0.314 1.48-0.627 2.96-0.938 4.44-3.62 16.1-8.6 31.3-17.1 45.6-0.343 0.581-0.686 1.16-1.04 1.76-3.17 5.24-6.77 10-10.6 14.7-0.581 0.727-1.16 1.45-1.76 2.2-0.558 0.686-1.12 1.37-1.69 2.08-0.502 0.619-1 1.24-1.52 1.88-0.443 0.443-0.885 0.886-1.34 1.34h-2c-0.206 0.557-0.412 1.11-0.625 1.69-1.88 3.15-4.53 5.08-7.38 7.31-0.928 0.804-1.86 1.61-2.81 2.44-24.8 20.5-54.7 27-85.8 31.1-3.33 0.451-6.65 0.946-9.97 1.44-7.02 1-14 1.66-21.1 2.2-1.27 0.1-2.54 0.2-3.85 0.303-4.14 0.325-8.29 0.638-12.4 0.951-1.46 0.111-2.92 0.221-4.38 0.332-56.4 4.26-113 6.37-169 8.15-2.31 0.0733-4.62 0.148-6.93 0.223-23.4 0.757-46.7 1.14-70.1 1.39-2.92 0.0305-5.85 0.0617-8.77 0.093-38.1 0.404-76.3 0.585-114 0.385-2.17-0.011-4.35-0.0207-6.52-0.0301-44.1-0.194-88.3-1.36-132-2.73-3.43-0.106-6.86-0.21-10.3-0.314-34.9-1.06-69.8-2.53-105-4.62-5.86-0.352-11.7-0.682-17.6-1.01-15.9-0.917-31.7-2.42-47.5-3.87-1.23-0.112-2.47-0.224-3.74-0.34-3.51-0.321-7.02-0.648-10.5-0.977-1.07-0.0979-2.14-0.196-3.25-0.297-0.982-0.0936-1.96-0.187-2.98-0.284-0.861-0.0806-1.72-0.161-2.61-0.244-2.08-0.297-2.08-0.297-4.08-1.3-1.87-0.267-3.75-0.488-5.64-0.684-1.14-0.123-2.27-0.246-3.44-0.373-2.39-0.252-4.78-0.502-7.16-0.75-5.82-0.634-11.2-1.4-16.8-3.19-1.98-0.427-3.96-0.844-5.94-1.25-20.8-4.82-38.9-15-55.1-28.8l-2.62-2.19c-4.93-4.24-9.24-8.8-13.4-13.8-0.637-0.737-1.27-1.47-1.93-2.23-5.66-6.74-9.93-14-14.1-21.8-0.474-0.878-0.949-1.76-1.44-2.66-7.98-15.3-11.7-31.2-14.6-48-0.571-3.24-1.21-6.44-1.96-9.65-1.35-5.95-2.13-12-2.94-18-0.172-1.28-0.344-2.56-0.521-3.88-1.59-12.2-2.64-24.4-3.59-36.6-0.0573-0.727-0.115-1.45-0.174-2.2-0.155-1.98-0.304-3.96-0.452-5.93-0.144-2.89-0.144-2.89-1.33-4.96-0.202-2.04-0.347-4.09-0.465-6.13-0.0768-1.29-0.154-2.59-0.233-3.92-0.0802-1.43-0.16-2.86-0.24-4.29-0.0856-1.48-0.171-2.96-0.258-4.44-0.181-3.12-0.359-6.25-0.534-9.37-0.22-3.92-0.447-7.83-0.676-11.7-0.179-3.07-0.355-6.15-0.53-9.22-0.0822-1.44-0.165-2.87-0.249-4.31-1.32-22.8-1.98-45.6-1.98-68.5-0.00323-2.4-0.0066-4.8-0.0101-7.21-0.00593-5-0.00785-10-0.00725-15 8.07e-5 -5.02-0.00678-10-0.0205-15-0.0866-32.2 0.406-64.3 2.08-96.4 0.119-2.29 0.236-4.59 0.351-6.88 0.352-6.96 0.734-13.9 1.15-20.9 0.195-3.25 0.381-6.49 0.566-9.74 0.124-2.1 0.248-4.2 0.373-6.3 0.0542-0.955 0.108-1.91 0.164-2.89 0.0535-0.866 0.107-1.73 0.162-2.62 0.045-0.757 0.0901-1.51 0.136-2.29 0.221-1.85 0.221-1.85 1.22-3.85 0.297-2.61 0.545-5.21 0.762-7.83 0.147-1.67 0.295-3.33 0.443-5 0.0781-0.883 0.156-1.77 0.237-2.68 2.35-26.2 6.21-52.1 11.2-77.9 0.19-0.98 0.38-1.96 0.576-2.97 1.12-5.46 2.58-10.5 4.74-15.7 0.304-0.738 0.608-1.48 0.921-2.24 5.81-13.9 12.5-27.1 22.1-38.8 0.763-0.969 1.53-1.94 2.31-2.94 2.41-2.89 5.12-5.24 8-7.63 1.44-1.22 2.79-2.54 4.12-3.87 8.78-8.78 18.6-15.8 29.6-21.6 0.962-0.507 1.92-1.01 2.91-1.54 5.92-3.05 11.7-5.55 18.1-7.46 0.92-0.318 1.84-0.637 2.79-0.965 41.8-13.5 91-13.6 135-15.4 0.777-0.0342 1.55-0.0685 2.35-0.104 1.44-0.0626 2.88-0.121 4.33-0.175 3.61-0.125 3.61-0.125 6.97-1.32 2.57-0.176 5.12-0.295 7.7-0.373 1.2-0.0417 1.2-0.0417 2.42-0.0843 2.67-0.0917 5.34-0.177 8.01-0.261 1.88-0.0628 3.76-0.126 5.64-0.189 5.04-0.169 10.1-0.331 15.1-0.492 3.11-0.0998 6.23-0.202 9.34-0.304 25.6-0.842 51.3-1.63 76.9-2.01 7.94-0.119 15.8-0.309 23.8-0.779 13.5-0.783 27-0.891 40.6-1.07 0.741-0.0103 1.48-0.0207 2.25-0.0313 46.1-0.643 92.2-0.603 138-0.406z" fill="#E90B03"/>
<path transform="translate(693,639)" d="m0 0c6.65 2.54 12.7 5.94 18.8 9.56 1.51 0.895 3.03 1.79 4.54 2.68 1.15 0.684 1.15 0.684 2.33 1.38 11.1 6.55 22.1 13 33.3 19.4 2.33 1.33 4.67 2.67 7 4 1.16 0.663 2.32 1.33 3.48 1.99 2.4 1.37 4.8 2.74 7.2 4.12 0.609 0.349 1.22 0.697 1.85 1.06 1.68 0.96 3.35 1.92 5.03 2.88 2.59 1.47 5.19 2.92 7.8 4.35 4.66 2.59 9.22 5.33 13.8 8.11 8.37 5.06 16.8 9.92 25.4 14.7 13 7.32 25.9 14.9 38.8 22.4 4.11 2.42 8.23 4.79 12.4 7.08 3.74 2.07 7.43 4.2 11.1 6.33 3.33 1.91 6.67 3.79 10 5.64 3.41 1.88 6.7 3.91 9.99 6 2.05 1.27 4.13 2.45 6.25 3.61 12 6.63 23.9 13.4 35.6 20.5 3.05 1.85 6.12 3.65 9.24 5.39 0.646 0.361 1.29 0.723 1.96 1.09 1.78 0.99 3.57 1.97 5.35 2.95 2.73 1.73 2.73 1.73 4.73 4.73-0.12 2.03-0.12 2.03-1 4-1.77 1.37-1.77 1.37-4.09 2.59-0.844 0.453-1.69 0.907-2.56 1.37-0.902 0.467-1.8 0.934-2.73 1.42-0.908 0.483-1.82 0.966-2.75 1.46-1.8 0.959-3.61 1.91-5.41 2.86-3.06 1.61-6.07 3.3-9.08 4.99-4.13 2.31-4.13 2.31-6.38 2.31-0.33 0.99-0.66 1.98-1 3-1.83 0.978-3.67 1.94-5.55 2.82-4.69 2.26-9.17 4.92-13.7 7.49-1.02 0.578-2.04 1.16-3.09 1.75-6.01 3.41-12 6.85-18 10.4-3.05 1.77-6.13 3.48-9.22 5.18-4.32 2.41-8.62 4.86-12.9 7.32-0.877 0.5-1.75 0.999-2.66 1.51-4.43 2.53-8.83 5.09-13.2 7.73-4.35 2.62-8.77 5.05-13.3 7.43-2.31 1.32-4.32 2.8-6.45 4.39-1.67 0.967-3.36 1.9-5.06 2.81-0.969 0.522-1.94 1.04-2.94 1.58-0.99 0.53-1.98 1.06-3 1.61-8.04 4.32-15.9 8.82-23.7 13.7-0.871 0.54-1.74 1.08-2.64 1.64-0.78 0.491-1.56 0.982-2.36 1.49-2.46 1.27-4.6 1.79-7.32 2.2v2c-0.69 0.373-1.38 0.746-2.09 1.13-3.16 1.71-6.31 3.41-9.47 5.12-1.09 0.587-2.17 1.17-3.29 1.78-6.69 3.62-6.69 3.62-13.3 7.39-2.85 1.58-2.85 1.58-4.85 1.58v2c-0.957 0.273-0.957 0.273-1.93 0.551-0.826 0.251-1.65 0.503-2.5 0.762-0.824 0.244-1.65 0.487-2.5 0.738-0.682 0.313-1.36 0.626-2.07 0.949-0.33 0.99-0.66 1.98-1 3-1.96 1.08-3.97 2.06-6 3-2.23 1.2-4.44 2.44-6.64 3.68-1.53 0.857-3.07 1.7-4.62 2.54-3.74 2.03-7.31 4.14-10.8 6.59-4.24 2.88-8.68 5.21-13.2 7.5-0.694 0.35-1.39 0.699-2.1 1.06-6.12 3.02-6.12 3.02-9.58 3.63-0.66-0.33-1.32-0.66-2-1-0.0457-40.3-0.081-80.7-0.102-121-0.0025-4.76-0.00509-9.52-0.00773-14.3-5.25e-4 -0.948-0.00105-1.9-0.00159-2.87-0.00871-15.4-0.0245-30.7-0.0429-46.1-0.0187-15.8-0.0298-31.5-0.0339-47.3-0.00275-9.73-0.0114-19.5-0.0277-29.2-0.0105-6.66-0.0138-13.3-0.0112-20 0.00129-3.85-7.43e-4 -7.7-0.0114-11.5-0.0115-4.16-0.00759-8.33-0.0021-12.5-0.00583-1.23-0.0117-2.46-0.0177-3.72 0.00398-1.11 0.00796-2.22 0.0121-3.36-7.59e-4 -0.962-0.00152-1.92-0.0023-2.92 0.248-2.28 0.248-2.28 2.25-4.28z" fill="#FDFDFD"/>
</svg>
